<?xml version="1.0" encoding="UTF-8" standalone="no"?>
<!-- Generated by graphviz version 2.29.20120406.0446 (20120406.0446)
 -->

<!-- Title: TouchVGCore Pages: 1 -->

<svg
   xmlns:dc="http://purl.org/dc/elements/1.1/"
   xmlns:cc="http://creativecommons.org/ns#"
   xmlns:rdf="http://www.w3.org/1999/02/22-rdf-syntax-ns#"
   xmlns:svg="http://www.w3.org/2000/svg"
   xmlns="http://www.w3.org/2000/svg"
   xmlns:xlink="http://www.w3.org/1999/xlink"
   xmlns:sodipodi="http://sodipodi.sourceforge.net/DTD/sodipodi-0.dtd"
   width="531.40356"
   height="545.4433"
   viewBox="0 0 425.12286 436.35465"
   id="svg3480"
   version="1.1"
   sodipodi:docname="core_modules.svg">
  <metadata
     id="metadata3935">
    <rdf:RDF>
      <cc:Work
         rdf:about="">
        <dc:format>image/svg+xml</dc:format>
        <dc:type
           rdf:resource="http://purl.org/dc/dcmitype/StillImage" />
        <dc:title />
      </cc:Work>
    </rdf:RDF>
  </metadata>
  <defs
     id="defs3933" />
  <text
     x="99.0644"
     y="333.70081"
     font-size="12"
     id="text3495"
     style="font-size:9.64535999px;text-anchor:middle;font-family:'Helvetica,sans-Serif'"
     transform="scale(1.0483354,0.95389319)">
    <tspan
       style="font-size:12.80000019px"
       id="tspan3108">TouchVGCore</tspan>
  </text>
  <a
     transform="matrix(1.0111572,0,0,0.92006436,-30.757855,448.19342)"
     id="a3500"
     target="_top"
     xlink:title="Canvas interface">
    <polygon
       points="407,-52 353,-52 353,-16 407,-16 407,-52 "
       id="polygon3502"
       style="fill:#ffffff;stroke:#000000" />
    <text
       x="380"
       y="-31.5"
       font-size="12"
       id="text3504"
       style="font-size:13px;text-anchor:middle;font-family:'Helvetica,sans-Serif'">
      <tspan
         style="font-size:12px"
         id="tspan3106">canvas</tspan>
    </text>
  </a>
  <a
     transform="matrix(1.0111572,0,0,0.92006436,-30.757855,448.19342)"
     id="a3509"
     target="_top"
     xlink:title="Command interface">
    <polygon
       points="92,-268 38,-268 38,-232 92,-232 92,-268 "
       id="polygon3511"
       style="fill:#ffffff;stroke:#000000" />
    <text
       x="65"
       y="-247.5"
       font-size="12"
       id="text3513"
       style="font-size:13px;text-anchor:middle;font-family:'Helvetica,sans-Serif'">
      <tspan
         style="font-size:12px"
         id="tspan3080">cmd</tspan>
    </text>
  </a>
  <a
     transform="matrix(1.0111572,0,0,0.92006436,-30.757855,448.19342)"
     id="a3518"
     target="_top"
     xlink:title="Vector Shapes">
    <polygon
       points="300,-196 246,-196 246,-160 300,-160 300,-196 "
       id="polygon3520"
       style="fill:#ffffff;stroke:#000000" />
    <text
       x="273"
       y="-175.5"
       font-size="12"
       id="text3522"
       style="font-size:13px;text-anchor:middle;font-family:'Helvetica,sans-Serif'">
      <tspan
         style="font-size:12px"
         id="tspan3100">shape</tspan>
    </text>
  </a>
  <path
     d="m 62.490057,221.3681 c 4.625737,1.70305 22.339507,11.49435 26.877583,13.00235 43.42718,22.56458 81.81335,38.40781 116.24022,47.72529"
     id="path3527"
     style="fill:none;stroke:#000000;stroke-width:0.96453601"
     sodipodi:nodetypes="ccc" />
  <polygon
     points="237.264,-193.025 245.861,-186.833 235.279,-186.312 237.264,-193.025 "
     id="polygon3529"
     style="fill:#000000;stroke:#000000"
     transform="matrix(1.0111572,0,0,0.92006436,-32.402333,445.98143)" />
  <a
     transform="matrix(1.0111572,0,0,0.92006436,-30.757855,448.19342)"
     id="a3538"
     target="_top"
     xlink:title="Base drawing command classes">
    <polygon
       points="112,-340 56,-340 56,-304 112,-304 112,-340 "
       id="polygon3540"
       style="fill:#ffffff;stroke:#000000" />
    <text
       x="84"
       y="-319.5"
       font-size="12"
       id="text3542"
       style="font-size:13px;text-anchor:middle;font-family:'Helvetica,sans-Serif'">
      <tspan
         style="font-size:12px"
         id="tspan3082">cmdbase</tspan>
    </text>
  </a>
  <path
     d="m 49.430355,168.77262 c -2.140416,7.1756 -4.717459,15.81407 -7.099527,23.80021"
     id="path3547"
     style="fill:none;stroke:#000000;stroke-width:0.96453601" />
  <polygon
     points="75.64,-276.838 75.64,-276.838 69.6426,-268.104 68.8844,-278.672 "
     id="polygon3549"
     style="fill:#000000;stroke:#000000"
     transform="matrix(1.0111572,0,0,0.92006436,-30.757855,448.19342)" />
  <path
     d="m 60.584432,168.75976 c 18.487385,19.5854 33.064193,32.0247 45.366178,40.58493 36.13982,25.14762 39.87955,28.79525 71.67009,46.58138 11.18845,6.25972 22.19837,12.2778 28.45149,15.24529"
     id="path3558"
     style="fill:none;stroke:#000000;stroke-width:0.96453601"
     sodipodi:nodetypes="cssc" />
  <polygon
     points="236.709,-187.639 245.93,-182.42 235.467,-180.751 236.709,-187.639 "
     id="polygon3560"
     style="fill:#000000;stroke:#000000"
     transform="matrix(1.0111572,0,0,0.92006436,-32.54534,451.70657)" />
  <a
     transform="matrix(1.0111572,0,0,0.92006436,-30.757855,448.19342)"
     id="a3569"
     target="_top"
     xlink:title="Basic drawing commands">
    <polygon
       points="137.25,-412 78.75,-412 78.75,-376 137.25,-376 137.25,-412 "
       id="polygon3571"
       style="fill:#ffffff;stroke:#000000" />
    <text
       x="108"
       y="-391.5"
       font-size="12"
       id="text3573"
       style="font-size:13px;text-anchor:middle;font-family:'Helvetica,sans-Serif'">
      <tspan
         style="font-size:12px"
         id="tspan3084">cmdbasic</tspan>
    </text>
  </a>
  <path
     d="m 49.083124,102.39919 c -12.415298,8.2539 -22.313921,19.4658 -29.080885,32.97234 -9.191815,18.34609 -0.202384,40.91435 7.34515,57.70827"
     id="path3578"
     style="fill:none;stroke:#000000;stroke-width:0.96453601"
     sodipodi:nodetypes="csc" />
  <polygon
     points="54.6769,-278.667 54.6769,-278.667 55.5417,-268.107 48.2807,-275.823 "
     id="polygon3580"
     style="fill:#000000;stroke:#000000"
     transform="matrix(1.0111572,0,0,0.92006436,-24.286439,448.19342)" />
  <path
     d="m 72.447945,102.52799 c -2.70323,7.1756 -5.958355,15.81407 -8.967351,23.80023"
     id="path3589"
     style="fill:none;stroke:#000000;stroke-width:0.96453601" />
  <polygon
     points="96.4185,-348.429 96.4185,-348.429 89.8643,-340.104 89.7968,-350.699 "
     id="polygon3591"
     style="fill:#000000;stroke:#000000"
     transform="matrix(1.0111572,0,0,0.92006436,-30.757855,448.19342)" />
  <path
     d="m 82.56557,102.25565 c 5.011297,17.14816 14.654713,45.03717 29.24974,66.2382 26.48019,38.46512 70.38162,72.83321 100.5596,93.76742"
     id="path3600"
     style="fill:none;stroke:#000000;stroke-width:0.96453601" />
  <polygon
     points="242.581,-204.863 242.581,-204.863 248.482,-196.064 238.382,-199.262 "
     id="polygon3602"
     style="fill:#000000;stroke:#000000"
     transform="matrix(1.0111572,0,0,0.92006436,-30.757855,448.19342)" />
  <a
     transform="matrix(1.0111572,0,0,0.92006436,-30.757855,448.19342)"
     id="a3611"
     target="_top"
     xlink:title="Command manager">
    <polygon
       points="204,-340 150,-340 150,-304 204,-304 204,-340 "
       id="polygon3613"
       style="fill:#ffffff;stroke:#000000" />
    <text
       x="177"
       y="-319.5"
       font-size="12"
       id="text3615"
       style="font-size:13px;text-anchor:middle;font-family:'Helvetica,sans-Serif'">
      <tspan
         style="font-size:12px"
         id="tspan3086">cmdmgr</tspan>
    </text>
  </a>
  <path
     d="m 120.80248,168.44325 c -14.91355,8.48114 -33.548178,19.07845 -49.641741,28.23124"
     id="path3620"
     style="fill:none;stroke:#000000;stroke-width:0.96453601" />
  <polygon
     points="102.586,-270.364 102.586,-270.364 92.2506,-268.032 98.8756,-276.3 "
     id="polygon3622"
     style="fill:#000000;stroke:#000000"
     transform="matrix(1.0111572,0,0,0.92006436,-30.757855,448.19342)" />
  <path
     d="m 159.92618,168.61253 c 16.90858,22.75686 48.28175,64.98321 67.92146,91.41667"
     id="path3631"
     style="fill:none;stroke:#000000;stroke-width:0.96453601" />
  <polygon
     points="258.678,-206.434 258.678,-206.434 261.379,-196.189 252.879,-202.513 "
     id="polygon3633"
     style="fill:#000000;stroke:#000000"
     transform="matrix(1.0111572,0,0,0.92006436,-30.757855,448.19342)" />
  <a
     transform="matrix(1.0111572,0,0,0.92006436,-30.757855,448.19342)"
     id="a3642"
     xlink:title="Shape Exportors"
     target="_top">
    <polygon
       points="448,-268 394,-268 394,-232 448,-232 448,-268 "
       id="polygon3644"
       style="fill:#ffffff;stroke:#000000" />
    <text
       x="421"
       y="-247.5"
       font-size="12"
       id="text3646"
       style="font-size:13px;text-anchor:middle;font-family:'Helvetica,sans-Serif'">
      <tspan
         style="font-size:12px"
         id="tspan3098">export</tspan>
    </text>
  </a>
  <path
     d="m 391.61668,234.87742 c -7.18632,34.13069 -24.2233,115.0439 -32.88384,156.17751"
     id="path3651"
     style="fill:none;stroke:#000000;stroke-width:0.96453601" />
  <polygon
     points="388.621,-61.3952 388.621,-61.3952 383.302,-52.2325 381.746,-62.7124 "
     id="polygon3653"
     style="fill:#000000;stroke:#000000"
     transform="matrix(1.0111572,0,0,0.92006436,-30.757855,448.19342)" />
  <path
     d="m 367.49147,230.91009 c -23.97354,10.3176 -58.96969,25.37812 -85.37302,36.74185"
     id="path3662"
     style="fill:none;stroke:#000000;stroke-width:0.96453601" />
  <polygon
     points="310.76,-192.988 310.76,-192.988 300.224,-191.876 307.767,-199.316 "
     id="polygon3664"
     style="fill:#000000;stroke:#000000"
     transform="matrix(1.0111572,0,0,0.92006436,-30.757855,448.19342)" />
  <a
     transform="matrix(1.0111572,0,0,0.92006436,-30.757855,448.19342)"
     id="a3673"
     target="_top"
     xlink:title="Math geometry">
    <polygon
       points="323,-52 269,-52 269,-16 323,-16 323,-52 "
       id="polygon3675"
       style="fill:#ffffff;stroke:#000000" />
    <text
       x="296"
       y="-31.5"
       font-size="12"
       id="text3677"
       style="font-size:13px;text-anchor:middle;font-family:'Helvetica,sans-Serif'">
      <tspan
         style="font-size:12px"
         id="tspan3104">geom</tspan>
    </text>
  </a>
  <a
     transform="matrix(1.0111572,0,0,0.92006436,-30.757855,448.19342)"
     id="a3682"
     target="_top"
     xlink:title="Graphics Interface">
    <polygon
       points="346,-124 292,-124 292,-88 346,-88 346,-124 "
       id="polygon3684"
       style="fill:#ffffff;stroke:#000000" />
    <text
       x="319"
       y="-103.5"
       font-size="12"
       id="text3686"
       style="font-size:13px;text-anchor:middle;font-family:'Helvetica,sans-Serif'">
      <tspan
         style="font-size:12px"
         id="tspan3102">graph</tspan>
    </text>
  </a>
  <path
     d="m 307.04853,367.50689 c 7.39459,7.72118 16.41209,17.13722 24.52663,25.61025"
     id="path3691"
     style="fill:none;stroke:#000000;stroke-width:0.96453601" />
  <polygon
     points="361.164,-61.9429 361.164,-61.9429 365.095,-52.1043 355.886,-57.344 "
     id="polygon3693"
     style="fill:#000000;stroke:#000000"
     transform="matrix(1.0111572,0,0,0.92006436,-30.757855,448.19342)" />
  <path
     d="m 286.05287,367.50689 c -2.5916,7.17532 -5.71102,15.81416 -8.59485,23.79968"
     id="path3702"
     style="fill:none;stroke:#000000;stroke-width:0.96453601" />
  <polygon
     points="308.067,-60.5121 308.067,-60.5121 301.62,-52.1043 301.416,-62.6972 "
     id="polygon3704"
     style="fill:#000000;stroke:#000000"
     transform="matrix(1.0111572,0,0,0.92006436,-30.757855,448.19342)" />
  <a
     transform="matrix(1.0111572,0,0,0.92006436,-30.757855,448.19342)"
     id="a3713"
     target="_top"
     xlink:title="Storage adapter using JSON">
    <polygon
       points="289.25,-340 222.75,-340 222.75,-304 289.25,-304 289.25,-340 "
       id="polygon3715"
       style="fill:#ffffff;stroke:#000000" />
    <text
       x="256"
       y="-319.5"
       font-size="12"
       id="text3717"
       style="font-size:13px;text-anchor:middle;font-family:'Helvetica,sans-Serif'">
      <tspan
         style="font-size:12px"
         id="tspan3088">jsonstorage</tspan>
    </text>
  </a>
  <a
     transform="matrix(1.0111572,0,0,0.92006436,-30.757855,448.19342)"
     id="a3722"
     target="_top"
     xlink:title="Shape recording">
    <polygon
       points="336,-412 282,-412 282,-376 336,-376 336,-412 "
       id="polygon3724"
       style="fill:#ffffff;stroke:#000000" />
    <text
       x="309"
       y="-391.5"
       font-size="12"
       id="text3726"
       style="font-size:13px;text-anchor:middle;font-family:'Helvetica,sans-Serif'">
      <tspan
         style="font-size:12px"
         id="tspan3090">record</tspan>
    </text>
  </a>
  <path
     d="m 268.44255,102.52799 c -6.36016,7.6439 -14.1016,16.9476 -21.09678,25.3533"
     id="path3731"
     style="fill:none;stroke:#000000;stroke-width:0.96453601" />
  <polygon
     points="277.777,-345.964 277.777,-345.964 268.95,-340.104 272.196,-350.19 "
     id="polygon3733"
     style="fill:#000000;stroke:#000000"
     transform="matrix(1.0111572,0,0,0.92006436,-30.757855,448.19342)" />
  <path
     d="m 281.3965,102.35686 c -0.7341,16.75438 -3.14067,43.8604 -10.82951,66.13699 -5.48148,15.88123 -14.2189,17.1086 -19.212,33.12229 -5.79693,18.58992 -7.15492,40.46536 -7.14989,56.92715"
     id="path3742"
     style="fill:none;stroke:#000000;stroke-width:0.96453601" />
  <polygon
     points="275.43,-206.137 275.43,-206.137 272.072,-196.088 268.43,-206.037 "
     id="polygon3744"
     style="fill:#000000;stroke:#000000"
     transform="matrix(1.0111572,0,0,0.92006436,-30.757855,448.19342)" />
  <a
     transform="matrix(1.0111572,0,0,0.92006436,-30.757855,448.19342)"
     id="a3753"
     target="_top"
     xlink:title="Shape document">
    <polygon
       points="387.25,-340 328.75,-340 328.75,-304 387.25,-304 387.25,-340 "
       id="polygon3755"
       style="fill:#ffffff;stroke:#000000" />
    <text
       x="358"
       y="-319.5"
       font-size="12"
       id="text3757"
       style="font-size:13px;text-anchor:middle;font-family:'Helvetica,sans-Serif'">
      <tspan
         style="font-size:12px"
         id="tspan3094">shapedoc</tspan>
    </text>
  </a>
  <path
     d="m 293.93686,102.52799 c 5.82022,7.56569 12.89225,16.75805 19.30703,25.09569"
     id="path3762"
     style="fill:none;stroke:#000000;stroke-width:0.96453601" />
  <polygon
     points="343.16,-350.304 343.16,-350.304 346.027,-340.104 337.425,-346.29 "
     id="polygon3764"
     style="fill:#000000;stroke:#000000"
     transform="matrix(1.0111572,0,0,0.92006436,-30.757855,448.19342)" />
  <path
     d="m 246.57123,301.12665 c 1.50057,16.55379 4.36313,43.28443 8.82842,66.10109 1.53493,7.84439 3.64925,16.30371 5.73426,23.93887"
     id="path3773"
     style="fill:none;stroke:#000000;stroke-width:0.96453601" />
  <polygon
     points="292.12,-62.6234 292.12,-62.6234 291.221,-52.0667 285.341,-60.8795 "
     id="polygon3775"
     style="fill:#000000;stroke:#000000"
     transform="matrix(1.0111572,0,0,0.92006436,-30.757855,448.19342)" />
  <path
     d="m 256.78593,301.26188 c 5.40666,7.48749 11.96504,16.56854 17.93792,24.83807"
     id="path3784"
     style="fill:none;stroke:#000000;stroke-width:0.96453601" />
  <polygon
     points="305.193,-134.384 305.193,-134.384 307.76,-124.104 299.343,-130.539 "
     id="polygon3786"
     style="fill:#000000;stroke:#000000"
     transform="matrix(1.0111572,0,0,0.92006436,-30.757855,448.19342)" />
  <path
     d="m 305.65314,168.51317 c -12.22895,8.57959 -26.12021,20.10617 -35.08615,33.10297 -11.90029,17.25031 -18.31608,39.6833 -21.70146,56.70634"
     id="path3795"
     style="fill:none;stroke:#000000;stroke-width:0.96453601" />
  <polygon
     points="279.951,-205.55 279.951,-205.55 274.894,-196.24 273.042,-206.672 "
     id="polygon3797"
     style="fill:#000000;stroke:#000000"
     transform="matrix(1.0111572,0,0,0.92006436,-30.757855,448.19342)" />
  <a
     transform="matrix(1.0111572,0,0,0.92006436,-30.757855,448.19342)"
     id="a3806"
     target="_top"
     xlink:title="Unit tests">
    <polygon
       points="376,-268 322,-268 322,-232 376,-232 376,-268 "
       id="polygon3808"
       style="fill:#ffffff;stroke:#000000" />
    <text
       x="349"
       y="-247.5"
       font-size="12"
       id="text3810"
       style="font-size:13px;text-anchor:middle;font-family:'Helvetica,sans-Serif'">
      <tspan
         style="font-size:12px"
         id="tspan3096">test</tspan>
    </text>
  </a>
  <path
     d="m 303.1394,235.01726 c -9.49172,7.9558 -21.13015,17.7094 -31.47328,26.37823"
     id="path3815"
     style="fill:none;stroke:#000000;stroke-width:0.96453601" />
  <polygon
     points="301.297,-200.305 301.297,-200.305 291.57,-196.104 296.555,-205.454 "
     id="polygon3817"
     style="fill:#000000;stroke:#000000"
     transform="matrix(1.0111572,0,0,0.92006436,-30.757855,448.19342)" />
  <a
     transform="matrix(1.0111572,0,0,0.92006436,-30.757855,448.19342)"
     id="a3826"
     target="_top"
     xlink:title="Core view and dispatcher">
    <polygon
       points="336,-484 282,-484 282,-448 336,-448 336,-484 "
       id="polygon3828"
       style="fill:#ffffff;stroke:#000000" />
    <text
       x="309"
       y="-463.5"
       font-size="12"
       id="text3830"
       style="font-size:13px;text-anchor:middle;font-family:'Helvetica,sans-Serif'">
      <tspan
         style="font-size:11.61180117px"
         id="tspan3092">view</tspan>
    </text>
  </a>
  <path
     d="M 254.15492,22.985667 C 197.74548,28.812437 71.60868,44.312767 39.012006,69.126901 0.37670542,98.537673 -2.7103732,123.84496 8.6772879,168.49385 10.799,176.81215 14.709645,185.34851 18.877949,192.90589"
     id="path3835"
     style="fill:none;stroke:#000000;stroke-width:0.96453601" />
  <polygon
     points="52.3142,-278.857 52.3142,-278.857 53.9538,-268.389 46.1446,-275.55 "
     id="polygon3837"
     style="fill:#000000;stroke:#000000"
     transform="matrix(1.0111572,0,0,0.92006436,-30.757855,448.19342)" />
  <path
     d="m 254.27927,29.049807 c -35.15995,11.14106 -96.38146,30.54155 -136.50622,43.256825"
     id="path3846"
     style="fill:none;stroke:#000000;stroke-width:0.96453601" />
  <polygon
     points="147.876,-405.181 147.876,-405.181 137.281,-405.197 145.573,-411.792 "
     id="polygon3848"
     style="fill:#000000;stroke:#000000"
     transform="matrix(1.0111572,0,0,0.92006436,-30.757855,448.19342)" />
  <path
     d="m 253.9193,36.131547 c -9.91337,9.52635 -19.53758,22.66486 -30.8767,33.731397 -20.35154,19.862353 -35.2469,41.849126 -51.84607,58.310916"
     id="path3857"
     style="fill:none;stroke:#000000;stroke-width:0.96453601"
     sodipodi:nodetypes="csc" />
  <polygon
     points="201.998,-345.122 201.998,-345.122 192.66,-340.117 196.839,-349.853 "
     id="polygon3859"
     style="fill:#000000;stroke:#000000"
     transform="matrix(1.0111572,0,0,0.92006436,-30.757855,448.19342)" />
  <path
     d="m 309.08297,30.198057 c 32.72006,11.9958 76.44047,41.519733 89.69875,64.690644 17.48394,38.232359 14.48788,69.926739 5.20748,97.621579"
     id="path3868"
     style="fill:none;stroke:#000000;stroke-width:0.96453601"
     sodipodi:nodetypes="ccc" />
  <polygon
     points="433.261,-276.754 433.261,-276.754 427.05,-268.17 426.553,-278.753 "
     id="polygon3870"
     style="fill:#000000;stroke:#000000"
     transform="matrix(1.0111572,0,0,0.92006436,-30.757855,448.19342)" />
  <path
     d="m 267.25747,36.100277 c -7.64332,9.11415 -16.54657,21.11271 -21.96941,33.026624 -8.25508,18.134464 -12.58789,40.036609 -14.83772,56.624429"
     id="path3879"
     style="fill:none;stroke:#000000;stroke-width:0.96453601" />
  <polygon
     points="261.784,-349.883 261.784,-349.883 257.216,-340.324 254.826,-350.646 "
     id="polygon3881"
     style="fill:#000000;stroke:#000000"
     transform="matrix(1.0111572,0,0,0.92006436,-30.757855,448.19342)" />
  <path
     d="m 281.68972,36.283367 c 0,7.09738 0,15.62729 0,23.53984"
     id="path3890"
     style="fill:none;stroke:#000000;stroke-width:0.96453601" />
  <polygon
     points="312.5,-422.104 312.5,-422.104 309,-412.104 305.5,-422.104 "
     id="polygon3892"
     style="fill:#000000;stroke:#000000"
     transform="matrix(1.0111572,0,0,0.92006436,-30.757855,448.19342)" />
  <path
     d="m 303.74205,36.219877 c 35.74441,27.66726 99.14398,86.207273 65.91836,132.273973 -22.30815,30.92978 -54.98876,7.13509 -83.92605,33.12229 -1.23664,1.11054 -17.1563,33.71393 -28.64813,57.43872"
     id="path3901"
     style="fill:none;stroke:#000000;stroke-width:0.96453601" />
  <polygon
     points="287.798,-203.994 287.798,-203.994 280.566,-196.252 281.392,-206.814 "
     id="polygon3903"
     style="fill:#000000;stroke:#000000"
     transform="matrix(1.0111572,0,0,0.92006436,-30.757855,448.19342)" />
  <path
     d="m 296.34343,36.019297 c 7.7131,9.0884 16.61228,21.0888 21.74797,33.107604 7.76062,18.16023 10.98824,40.060519 12.30678,56.641929"
     id="path3912"
     style="fill:none;stroke:#000000;stroke-width:0.96453601" />
  <polygon
     points="360.673,-350.495 360.673,-350.495 357.752,-340.311 353.685,-350.094 "
     id="polygon3914"
     style="fill:#000000;stroke:#000000"
     transform="matrix(1.0111572,0,0,0.92006436,-30.757855,448.19342)" />
  <path
     d="m 307.39231,35.600667 c 27.84425,10.09219 61.67354,38.974852 69.14395,52.295551 13.95196,22.612422 29.78668,57.489282 14.96513,78.021442 -7.64535,9.94038 -20.93702,22.09997 -32.00715,29.87908"
     id="path3923"
     style="fill:none;stroke:#000000;stroke-width:0.96453601"
     sodipodi:nodetypes="cccc" />
  <polygon
     points="386.171,-268.927 386.171,-268.927 376.01,-265.926 382.082,-274.608 "
     id="polygon3925"
     style="fill:#000000;stroke:#000000"
     transform="matrix(1.0111572,0,0,0.92006436,-29.139995,445.98524)" />
</svg>
