<?xml version="1.0" encoding="UTF-8" standalone="no"?>
<!-- Generated by Graphviz version 2.17.20071127.0540 (Tue Nov 27 23:18:34 GMT 2007)
     For user: (zhangyg) Zhang Yungui -->

<!-- Title: touchvg Pages: 1 -->

<svg
   xmlns:dc="http://purl.org/dc/elements/1.1/"
   xmlns:cc="http://creativecommons.org/ns#"
   xmlns:rdf="http://www.w3.org/1999/02/22-rdf-syntax-ns#"
   xmlns:svg="http://www.w3.org/2000/svg"
   xmlns="http://www.w3.org/2000/svg"
   xmlns:xlink="http://www.w3.org/1999/xlink"
   xmlns:sodipodi="http://sodipodi.sourceforge.net/DTD/sodipodi-0.dtd"
   xmlns:inkscape="http://www.inkscape.org/namespaces/inkscape"
   width="330.58066"
   height="456.87698"
   viewBox="0 0 264.46453 365.50159"
   id="svg2"
   version="1.1"
   inkscape:version="0.48.2 r9819"
   sodipodi:docname="dir_f52faf0ef4a1e0642297a9dba5e2547e_dep.svg">
  <metadata
     id="metadata642">
    <rdf:RDF>
      <cc:Work
         rdf:about="">
        <dc:format>image/svg+xml</dc:format>
        <dc:type
           rdf:resource="http://purl.org/dc/dcmitype/StillImage" />
        <dc:title></dc:title>
      </cc:Work>
    </rdf:RDF>
  </metadata>
  <defs
     id="defs640" />
  <sodipodi:namedview
     pagecolor="#ffffff"
     bordercolor="#666666"
     borderopacity="1"
     objecttolerance="10"
     gridtolerance="10"
     guidetolerance="10"
     inkscape:pageopacity="0"
     inkscape:pageshadow="2"
     inkscape:window-width="1305"
     inkscape:window-height="830"
     id="namedview638"
     showgrid="false"
     inkscape:zoom="1.1310712"
     inkscape:cx="254.28542"
     inkscape:cy="244.51017"
     inkscape:window-x="0"
     inkscape:window-y="0"
     inkscape:window-maximized="0"
     inkscape:current-layer="svg2"
     fit-margin-top="5"
     fit-margin-left="5"
     fit-margin-right="5"
     fit-margin-bottom="5"
     borderlayer="false"
     inkscape:showpageshadow="false"
     showborder="false" />
  <polygon
     id="polygon26"
     points="228.877,-564 171.123,-564 171.123,-528 228.877,-528 228.877,-564 "
     style="fill:#ffffff;stroke:#000000;stroke-opacity:1"
     transform="matrix(0.5832,0,0,0.5832,-5.1830671,375.2068)" />
  <text
     sodipodi:linespacing="125%"
     id="text28"
     style="font-size:5.83199978px;line-height:125%;text-anchor:middle;font-family:Arial"
     y="58.529102"
     x="111.45693">
    <tspan
       id="tspan4278"
       style="font-size:7.92000008px;font-style:normal;font-variant:normal;font-weight:normal;font-stretch:normal;text-align:center;line-height:125%;writing-mode:lr-tb;text-anchor:middle;font-family:Arial;-inkscape-font-specification:Arial">andrview</tspan>
  </text>
  <a
     xlink:href="dir_0d1128b2a8ae76c88721439d253c0bfa.htm"
     target="_top"
     xlink:title="view"
     id="a33"
     transform="matrix(0.5832,0,0,0.5832,-5.1830671,375.2068)">
    <polygon
       style="fill:#ffffff;stroke:#000000"
       points="301,-456 301,-492 301,-492 247,-492 247,-456 "
       id="polygon35" />
    <text
       x="274"
       y="-471"
       style="font-size:10px;line-height:125%;text-anchor:middle;font-family:Arial"
       id="text37"
       sodipodi:linespacing="125%">
      <tspan
         style="font-size:14.81481457px;font-style:normal;font-variant:normal;font-weight:normal;font-stretch:normal;text-align:center;line-height:125%;writing-mode:lr-tb;text-anchor:middle;font-family:Arial;-inkscape-font-specification:Arial"
         id="tspan4272">view</tspan>
    </text>
  </a>
  <path
     style="fill:none;stroke:#000000;stroke-width:0.58319998"
     d="m 122.53773,67.277068 c 5.2488,5.2488 11.664,11.080802 17.496,16.91284"
     id="path42"
     inkscape:connector-curvature="0" />
  <polygon
     style="fill:#000000;stroke:#000000"
     points="256,-492 246.454,-496.596 251.404,-501.546 251.404,-501.546 "
     id="polygon44"
     transform="matrix(0.5832,0,0,0.5832,-5.1830671,375.2068)" />
  <a
     xlink:href="dir_f38d51fe1b3d8df5bd989400af297337.htm"
     target="_top"
     xlink:title="canvas"
     id="a55"
     transform="matrix(0.5832,0,0,0.5832,-5.1830671,375.2068)">
    <polygon
       style="fill:#ffffff;stroke:#000000"
       points="436,-24 436,-60 436,-60 382,-60 382,-24 "
       id="polygon57" />
    <text
       x="409"
       y="-39"
       style="font-size:10px;line-height:125%;text-anchor:middle;font-family:Arial"
       id="text59"
       sodipodi:linespacing="125%">
      <tspan
         style="font-size:14.81481457px;font-style:normal;font-variant:normal;font-weight:normal;font-stretch:normal;text-align:center;line-height:125%;writing-mode:lr-tb;text-anchor:middle;font-family:Arial;-inkscape-font-specification:Arial"
         id="tspan4248">canvas</tspan>
    </text>
  </a>
  <a
     xlink:href="dir_e2ba78c6158ae16228242812a00a6366.htm"
     target="_top"
     xlink:title="cmd"
     id="a64"
     transform="matrix(0.5832,0,0,0.5832,-5.1830671,375.2068)">
    <polygon
       style="fill:#ffffff;stroke:#000000"
       points="324,-240 324,-276 324,-276 270,-276 270,-240 "
       id="polygon66" />
    <text
       x="297"
       y="-255"
       style="font-size:10px;line-height:125%;text-anchor:middle;font-family:Arial"
       id="text68"
       sodipodi:linespacing="125%">
      <tspan
         style="font-size:14.81481457px;font-style:normal;font-variant:normal;font-weight:normal;font-stretch:normal;text-align:center;line-height:125%;writing-mode:lr-tb;text-anchor:middle;font-family:Arial;-inkscape-font-specification:Arial"
         id="tspan4254">cmd</tspan>
    </text>
  </a>
  <a
     xlink:href="dir_9e8e25d3d264c0cc16b25f7020088e7e.htm"
     target="_top"
     xlink:title="shape"
     id="a73"
     transform="matrix(0.5832,0,0,0.5832,-5.1830671,375.2068)">
    <polygon
       style="fill:#ffffff;stroke:#000000"
       points="324,-168 324,-204 324,-204 270,-204 270,-168 "
       id="polygon75" />
    <text
       x="297"
       y="-183"
       style="font-size:10px;line-height:125%;text-anchor:middle;font-family:Arial"
       id="text77"
       sodipodi:linespacing="125%">
      <tspan
         style="font-size:14.81481457px;font-style:normal;font-variant:normal;font-weight:normal;font-stretch:normal;text-align:center;line-height:125%;writing-mode:lr-tb;text-anchor:middle;font-family:Arial;-inkscape-font-specification:Arial"
         id="tspan4252">shape</tspan>
    </text>
  </a>
  <path
     style="fill:none;stroke:#000000;stroke-width:0.58319998"
     d="m 168.02733,235.23879 c 0,4.6656 0,9.9144 0,15.1632"
     id="path82"
     inkscape:connector-curvature="0" />
  <polygon
     style="fill:#000000;stroke:#000000"
     points="297,-204 293.5,-214 300.5,-214 300.5,-214 "
     id="polygon84"
     transform="matrix(0.5832,0,0,0.5832,-5.1830671,375.2068)" />
  <a
     xlink:href="dir_0ab0d09cb09c99f727d8a7abbf7a8e15.htm"
     target="_top"
     xlink:title="cmdbase"
     id="a95"
     transform="matrix(0.5832,0,0,0.5832,-5.1830671,375.2068)">
    <polygon
       style="fill:#ffffff;stroke:#000000"
       points="284,-312 284,-348 284,-348 226,-348 226,-312 "
       id="polygon97" />
    <text
       x="255"
       y="-327"
       style="font-size:10px;line-height:125%;text-anchor:middle;font-family:Arial"
       id="text99"
       sodipodi:linespacing="125%">
      <tspan
         style="font-size:13.58024693px;font-style:normal;font-variant:normal;font-weight:normal;font-stretch:normal;text-align:center;line-height:125%;writing-mode:lr-tb;text-anchor:middle;font-family:Arial;-inkscape-font-specification:Arial"
         id="tspan4260">cmdbase</tspan>
    </text>
  </a>
  <path
     style="fill:none;stroke:#000000;stroke-width:0.58319998"
     d="m 149.94813,193.24839 c 2.3328,4.6656 5.832,10.4976 9.3312,15.7464"
     id="path104"
     inkscape:connector-curvature="0" />
  <polygon
     style="fill:#000000;stroke:#000000"
     points="287,-276 279.084,-283.042 285.203,-286.441 285.203,-286.441 "
     id="polygon106"
     transform="matrix(0.5832,0,0,0.5832,-5.1830671,375.2068)" />
  <path
     style="fill:none;stroke:#000000;stroke-width:0.58319998"
     d="m 142.94973,193.24839 c -0.5832,11.0808 -0.5832,28.5768 4.0824,41.9904 2.3328,5.832 5.2488,11.0808 8.1648,15.7464"
     id="path117"
     inkscape:connector-curvature="0" />
  <polygon
     style="fill:#000000;stroke:#000000"
     points="281,-204 272.541,-210.379 278.365,-214.262 278.365,-214.262 "
     id="polygon119"
     transform="matrix(0.5832,0,0,0.5832,-5.1830671,375.2068)" />
  <g
     class="node"
     id="node7"
     transform="matrix(0.5832,0,0,0.5832,-5.1830671,375.2068)">
    <title
       id="title128">dir_1ceab193fdfa8d16f9f30f1836660d41</title>
    <a
       xlink:href="dir_1ceab193fdfa8d16f9f30f1836660d41.htm"
       id="a130"
       xlink:title="cmdbasic"
       target="_top">
      <polygon
         id="polygon132"
         points="235.25,-420 235.25,-384 294.75,-384 294.75,-420 294.75,-420 "
         style="fill:#ffffff;stroke:#000000" />
      <text
         id="text134"
         style="font-size:10px;line-height:125%;text-anchor:middle;font-family:Arial"
         y="-399"
         x="265"
         sodipodi:linespacing="125%">
        <tspan
           style="font-size:13.58024693px;font-style:normal;font-variant:normal;font-weight:normal;font-stretch:normal;text-align:center;line-height:125%;writing-mode:lr-tb;text-anchor:middle;font-family:Arial;-inkscape-font-specification:Arial"
           id="tspan4282">cmdbasic</tspan>
      </text>
    </a>
  </g>
  <path
     style="fill:none;stroke:#000000;stroke-width:0.58319998"
     d="m 156.36333,151.25799 c 3.4992,5.832 7.5816,13.4136 9.3312,20.9952 3.4992,11.664 4.0824,25.6608 3.4992,36.1584"
     id="path139"
     inkscape:connector-curvature="0" />
  <polygon
     style="fill:#000000;stroke:#000000"
     points="299,-276 295.5,-286 302.5,-286 302.5,-286 "
     id="polygon141"
     transform="matrix(0.5832,0,0,0.5832,-5.1830671,375.2068)" />
  <path
     style="fill:none;stroke:#000000;stroke-width:0.58319998"
     d="m 147.61533,151.25799 c -0.5832,4.6656 -1.1664,9.9144 -1.7496,15.1632"
     id="path152"
     inkscape:connector-curvature="0" />
  <polygon
     style="fill:#000000;stroke:#000000"
     points="258,-348 255.512,-358.299 262.478,-357.602 262.478,-357.602 "
     id="polygon154"
     transform="matrix(0.5832,0,0,0.5832,-5.1830671,375.2068)" />
  <path
     style="fill:none;stroke:#000000;stroke-width:0.58319998"
     d="m 136.53453,151.25799 c -5.832,5.832 -11.664,12.8304 -15.1632,20.9952 -2.916,8.748 -4.13407,18.68525 -2.38447,27.43325 5.2488,22.74478 17.8954,37.88515 29.5594,51.88195"
     id="path165"
     inkscape:connector-curvature="0"
     sodipodi:nodetypes="cccc" />
  <polygon
     style="fill:#000000;stroke:#000000"
     points="276.049,-213.831 276.049,-213.831 280,-204 270.781,-209.221 "
     id="polygon167"
     transform="matrix(0.5832,0,0,0.5832,-10.781787,375.2068)" />
  <a
     xlink:href="dir_7a6a0c7ce7a6455451ada369d86918b2.htm"
     target="_top"
     xlink:title="cmdmgr"
     id="a178"
     transform="matrix(0.5832,0,0,0.5832,-5.1830671,375.2068)">
    <polygon
       style="fill:#ffffff;stroke:#000000"
       points="396,-312 396,-348 396,-348 342,-348 342,-312 "
       id="polygon180" />
    <text
       x="369"
       y="-327"
       style="font-size:10px;line-height:125%;text-anchor:middle;font-family:Arial"
       id="text182"
       sodipodi:linespacing="125%">
      <tspan
         style="font-size:13.58024693px;font-style:normal;font-variant:normal;font-weight:normal;font-stretch:normal;text-align:center;line-height:125%;writing-mode:lr-tb;text-anchor:middle;font-family:Arial;-inkscape-font-specification:Arial"
         id="tspan4258">cmdmgr</tspan>
    </text>
  </a>
  <path
     style="fill:none;stroke:#000000;stroke-width:0.58319998"
     d="m 199.52013,193.24839 c -5.2488,5.2488 -11.0808,11.0808 -16.9128,16.9128"
     id="path187"
     inkscape:connector-curvature="0" />
  <polygon
     style="fill:#000000;stroke:#000000"
     points="315,-276 319.596,-285.546 324.546,-280.596 324.546,-280.596 "
     id="polygon189"
     transform="matrix(0.5832,0,0,0.5832,-5.1830671,375.2068)" />
  <path
     style="fill:none;stroke:#000000;stroke-width:0.58319998"
     d="m 206.51853,193.24839 c -3.4992,11.0808 -4.90703,16.30973 -12.48863,30.30653 -2.916,5.832 -9.99189,17.99573 -17.30624,27.77502"
     id="path200"
     inkscape:connector-curvature="0"
     sodipodi:nodetypes="ccc" />
  <polygon
     style="fill:#000000;stroke:#000000"
     points="318.8,-209.9 310,-204 313.2,-214.1 318.8,-209.9 "
     id="polygon202"
     transform="matrix(0.5832,0,0,0.5832,-7.9824271,375.2068)" />
  <a
     xlink:href="dir_1f2a0cd2385841f1f2d137f2f9930ef2.htm"
     target="_top"
     xlink:title="export"
     id="a213"
     transform="matrix(0.5832,0,0,0.5832,-5.1830671,375.2068)">
    <polygon
       style="fill:#ffffff;stroke:#000000"
       points="436,-240 436,-276 436,-276 382,-276 382,-240 "
       id="polygon215" />
    <text
       x="409"
       y="-255"
       style="font-size:10px;line-height:125%;text-anchor:middle;font-family:Arial"
       id="text217"
       sodipodi:linespacing="125%">
      <tspan
         style="font-size:14.81481457px;font-style:normal;font-variant:normal;font-weight:normal;font-stretch:normal;text-align:center;line-height:125%;writing-mode:lr-tb;text-anchor:middle;font-family:Arial;-inkscape-font-specification:Arial"
         id="tspan4256">export</tspan>
    </text>
  </a>
  <path
     style="fill:none;stroke:#000000;stroke-width:0.58319998"
     d="m 233.34573,235.23879 c 0,22.1616 0,72.9 0,99.144"
     id="path222"
     inkscape:connector-curvature="0" />
  <polygon
     style="fill:#000000;stroke:#000000"
     points="409,-60 405.5,-70 412.5,-70 412.5,-70 "
     id="polygon224"
     transform="matrix(0.5832,0,0,0.5832,-5.1830671,375.2068)" />
  <path
     style="fill:none;stroke:#000000;stroke-width:0.58319998"
     d="m 217.59933,234.65559 c -8.1648,5.832 -19.2456,12.8304 -28.5768,18.6624"
     id="path235"
     inkscape:connector-curvature="0" />
  <polygon
     style="fill:#000000;stroke:#000000"
     points="324,-203 330.379,-211.459 334.262,-205.635 334.262,-205.635 "
     id="polygon237"
     transform="matrix(0.5832,0,0,0.5832,-5.1830671,375.2068)" />
  <a
     xlink:href="dir_e01f74e4ef8862db198a230aef9acfc2.htm"
     target="_top"
     xlink:title="geom"
     id="a248"
     transform="matrix(0.5832,0,0,0.5832,-5.1830671,375.2068)">
    <polygon
       style="fill:#ffffff;stroke:#000000"
       points="344,-24 344,-60 344,-60 290,-60 290,-24 "
       id="polygon250" />
    <text
       x="317"
       y="-39"
       style="font-size:10px;line-height:125%;text-anchor:middle;font-family:Arial"
       id="text252"
       sodipodi:linespacing="125%">
      <tspan
         style="font-size:14.81481457px;font-style:normal;font-variant:normal;font-weight:normal;font-stretch:normal;text-align:center;line-height:125%;writing-mode:lr-tb;text-anchor:middle;font-family:Arial;-inkscape-font-specification:Arial"
         id="tspan4246">geom</tspan>
    </text>
  </a>
  <a
     xlink:href="dir_0bc55861355cddc512078f6e4cb67149.htm"
     target="_top"
     xlink:title="graph"
     id="a257"
     transform="matrix(0.5832,0,0,0.5832,-5.1830671,375.2068)">
    <polygon
       style="fill:#ffffff;stroke:#000000"
       points="370,-96 370,-132 370,-132 316,-132 316,-96 "
       id="polygon259" />
    <text
       x="343"
       y="-111"
       style="font-size:10px;line-height:125%;text-anchor:middle;font-family:Arial"
       id="text261"
       sodipodi:linespacing="125%">
      <tspan
         style="font-size:14.81481457px;font-style:normal;font-variant:normal;font-weight:normal;font-stretch:normal;text-align:center;line-height:125%;writing-mode:lr-tb;text-anchor:middle;font-family:Arial;-inkscape-font-specification:Arial"
         id="tspan4250">graph</tspan>
    </text>
  </a>
  <path
     style="fill:none;stroke:#000000;stroke-width:0.58319998"
     d="m 204.76893,319.21959 c 4.6656,5.2488 9.9144,11.0808 15.1632,16.3296"
     id="path266"
     inkscape:connector-curvature="0" />
  <polygon
     style="fill:#000000;stroke:#000000"
     points="393,-60 383.781,-65.221 389.049,-69.8306 389.049,-69.8306 "
     id="polygon268"
     transform="matrix(0.5832,0,0,0.5832,-5.1830671,375.2068)" />
  <path
     style="fill:none;stroke:#000000;stroke-width:0.58319998"
     d="m 190.77213,319.21959 c -1.7496,4.6656 -3.4992,9.9144 -5.2488,15.1632"
     id="path279"
     inkscape:connector-curvature="0" />
  <polygon
     style="fill:#000000;stroke:#000000"
     points="324,-60 323.521,-70.584 330.226,-68.5725 330.226,-68.5725 "
     id="polygon281"
     transform="matrix(0.5832,0,0,0.5832,-5.1830671,375.2068)" />
  <a
     xlink:href="dir_41af74a16dad24cfc38740c4f2f63724.htm"
     target="_top"
     xlink:title="iosplay"
     id="a292"
     transform="matrix(0.5832,0,0,0.5832,-5.1830671,375.2068)">
    <polygon
       style="fill:#ffffff;stroke:#000000"
       points="347,-600 347,-636 347,-636 293,-636 293,-600 "
       id="polygon294" />
    <text
       x="320"
       y="-615"
       style="font-size:10px;line-height:125%;text-anchor:middle;font-family:Arial"
       id="text296"
       sodipodi:linespacing="125%">
      <tspan
         style="font-size:14.81481457px;font-style:normal;font-variant:normal;font-weight:normal;font-stretch:normal;text-align:center;line-height:125%;writing-mode:lr-tb;text-anchor:middle;font-family:Arial;-inkscape-font-specification:Arial"
         id="tspan4242">iosplay</tspan>
    </text>
  </a>
  <a
     xlink:href="dir_33f6cd9b6ed4b534386bc25dad6790a3.htm"
     target="_top"
     xlink:title="iosview"
     id="a301"
     transform="matrix(0.5832,0,0,0.5832,-5.1830671,375.2068)">
    <polygon
       style="fill:#ffffff;stroke:#000000"
       points="393,-528 393,-564 393,-564 339,-564 339,-528 "
       id="polygon303" />
    <text
       x="366"
       y="-543"
       style="font-size:10px;line-height:125%;text-anchor:middle;font-family:Arial"
       id="text305"
       sodipodi:linespacing="125%">
      <tspan
         style="font-size:14.81481457px;font-style:normal;font-variant:normal;font-weight:normal;font-stretch:normal;text-align:center;line-height:125%;writing-mode:lr-tb;text-anchor:middle;font-family:Arial;-inkscape-font-specification:Arial"
         id="tspan4274">iosview</tspan>
    </text>
  </a>
  <path
     style="fill:none;stroke:#000000;stroke-width:0.58319998"
     d="m 188.43933,25.286668 c 2.916,4.6656 6.9984,10.4976 10.4976,16.3296"
     id="path310"
     inkscape:connector-curvature="0" />
  <polygon
     style="fill:#000000;stroke:#000000"
     points="355,-564 346.732,-570.625 352.668,-574.335 352.668,-574.335 "
     id="polygon312"
     transform="matrix(0.5832,0,0,0.5832,-5.1830671,375.2068)" />
  <polygon
     id="polygon325"
     points="153,-564 99,-564 99,-528 153,-528 153,-564 "
     style="fill:#ffffff;stroke:#000000"
     transform="matrix(0.5832,0,0,0.5832,-5.1830671,375.2068)" />
  <text
     sodipodi:linespacing="125%"
     id="text327"
     style="font-size:5.83199978px;line-height:125%;text-anchor:middle;font-family:Arial"
     y="58.529102"
     x="68.300125">
    <tspan
       id="tspan4244"
       style="font-size:8.63999939px;font-style:normal;font-variant:normal;font-weight:normal;font-stretch:normal;text-align:center;line-height:125%;writing-mode:lr-tb;text-anchor:middle;font-family:Arial;-inkscape-font-specification:Arial">play</tspan>
  </text>
  <path
     style="fill:none;stroke:#000000;stroke-width:0.58319998"
     d="m 165.69453,19.454668 c -17.496,5.2488 -46.656,15.1632 -76.3992,26.8272"
     id="path332"
     inkscape:connector-curvature="0" />
  <polygon
     style="fill:#000000;stroke:#000000"
     points="153,-560 160.717,-567.26 163.56,-560.863 163.56,-560.863 "
     id="polygon334"
     transform="matrix(0.5832,0,0,0.5832,-5.1830671,375.2068)" />
  <path
     style="fill:none;stroke:#000000;stroke-width:0.58319998"
     d="m 181.44093,25.286668 c 0,11.0808 1.21807,22.615641 -3.44752,36.029241 -1.7496,5.832 -6.33474,13.465271 -12.2184,22.052329"
     id="path345"
     inkscape:connector-curvature="0"
     sodipodi:nodetypes="ccc" />
  <polygon
     style="fill:#000000;stroke:#000000"
     points="298.8,-497.9 298.8,-497.9 290,-492 293.2,-502.1 "
     id="polygon347"
     transform="matrix(0.5832,0,0,0.5832,-7.0493071,375.2068)" />
  <path
     style="fill:none;stroke:#000000;stroke-width:0.58319998"
     d="m 220.51533,67.277068 c 15.1632,15.16323 39.6576,43.156932 39.6576,73.483332 0,0 0,0 0,125.9712 0,25.0776 -10.4976,51.9048 -18.6624,68.2344"
     id="path358"
     inkscape:connector-curvature="0" />
  <polygon
     style="fill:#000000;stroke:#000000"
     points="419,-60 419.863,-70.5596 426.26,-67.7166 426.26,-67.7166 "
     id="polygon360"
     transform="matrix(0.5832,0,0,0.5832,-5.1830671,375.2068)" />
  <path
     style="fill:none;stroke:#000000;stroke-width:0.58319998"
     d="m 194.85453,67.277068 c -6.4152,5.2488 -15.1632,11.664011 -22.1616,17.49604"
     id="path371"
     inkscape:connector-curvature="0" />
  <polygon
     style="fill:#000000;stroke:#000000"
     points="297,-492 302.9,-500.8 307.1,-495.2 307.1,-495.2 "
     id="polygon373"
     transform="matrix(0.5832,0,0,0.5832,-5.1830671,375.2068)" />
  <a
     xlink:href="dir_ff02c34e489f80e1c039576f7ca18e44.htm"
     target="_top"
     xlink:title="jsonstorage"
     id="a384"
     transform="matrix(0.5832,0,0,0.5832,-5.1830671,375.2068)">
    <polygon
       style="fill:#ffffff;stroke:#000000"
       points="195.75,-312 195.75,-348 195.75,-348 116.25,-348 116.25,-312 "
       id="polygon386" />
    <text
       x="156"
       y="-327"
       style="font-size:10px;text-anchor:middle;font-family:Arial"
       id="text388">
      <tspan
         style="font-size:13.58024693px;font-style:normal;font-variant:normal;font-weight:normal;font-stretch:normal;text-align:center;line-height:125%;writing-mode:lr-tb;text-anchor:middle;font-family:Arial;-inkscape-font-specification:Arial"
         id="tspan4262">jsonstorage</tspan>
    </text>
  </a>
  <a
     xlink:href="dir_2feab349c0c886fc5a924a41beaa69e9.htm"
     target="_top"
     xlink:title="shapedoc"
     id="a393"
     transform="matrix(0.5832,0,0,0.5832,-5.1830671,375.2068)">
    <polygon
       style="fill:#ffffff;stroke:#000000"
       points="77.754,-312 77.754,-348 77.754,-348 16.246,-348 16.246,-312 "
       id="polygon395" />
    <text
       x="47"
       y="-327"
       style="font-size:10px;line-height:125%;text-anchor:middle;font-family:Arial"
       id="text397"
       sodipodi:linespacing="125%">
      <tspan
         style="font-size:13.58024693px;font-style:normal;font-variant:normal;font-weight:normal;font-stretch:normal;text-align:center;line-height:125%;writing-mode:lr-tb;text-anchor:middle;font-family:Arial;-inkscape-font-specification:Arial"
         id="tspan4268">shapedoc</tspan>
    </text>
  </a>
  <path
     style="fill:none;stroke:#000000;stroke-width:0.58319998"
     d="m 62.468131,67.277068 c -7.5816,14.58003 -20.412,40.240932 -28.5768,62.985732 -4.0824,11.664 -9.621303,25.89925 -11.370903,36.39686"
     id="path402"
     inkscape:connector-curvature="0"
     sodipodi:nodetypes="ccc" />
  <polygon
     style="fill:#000000;stroke:#000000"
     points="55.3933,-357.119 50,-348 48.5292,-358.492 55.3933,-357.119 "
     id="polygon404"
     transform="matrix(0.5832,0,0,0.5832,-7.9824271,375.2068)" />
  <path
     style="fill:none;stroke:#000000;stroke-width:0.58319998"
     d="m 84.046534,64.944268 c 1.749596,0.5832 3.499196,1.7496 5.248796,2.3328 14.58,7.5816 31.4928,15.16323 44.3232,21.5785"
     id="path415"
     inkscape:connector-curvature="0" />
  <polygon
     style="fill:#000000;stroke:#000000"
     points="247,-487 236.44,-487.863 239.283,-494.26 239.283,-494.26 "
     id="polygon417"
     transform="matrix(0.5832,0,0,0.5832,-5.1830671,375.2068)" />
  <a
     xlink:href="dir_4857293b2183828c9f77b6aea04da81d.htm"
     target="_top"
     xlink:title="record"
     id="a428"
     transform="matrix(0.5832,0,0,0.5832,-5.1830671,375.2068)">
    <polygon
       style="fill:#ffffff;stroke:#000000"
       points="160,-384 160,-420 160,-420 106,-420 106,-384 "
       id="polygon430" />
    <text
       x="133"
       y="-399"
       style="font-size:10px;line-height:125%;text-anchor:middle;font-family:Arial"
       id="text432"
       sodipodi:linespacing="125%">
      <tspan
         style="font-size:14.81481457px;font-style:normal;font-variant:normal;font-weight:normal;font-stretch:normal;text-align:center;line-height:125%;writing-mode:lr-tb;text-anchor:middle;font-family:Arial;-inkscape-font-specification:Arial"
         id="tspan4270">record</tspan>
    </text>
  </a>
  <path
     style="fill:none;stroke:#000000;stroke-width:0.58319998"
     d="m 75.298531,151.258 c 1.1664,4.6656 2.3328,9.9144 3.4992,15.1632"
     id="path437"
     inkscape:connector-curvature="0" />
  <polygon
     style="fill:#000000;stroke:#000000"
     points="147,-348 140.774,-356.573 147.479,-358.584 147.479,-358.584 "
     id="polygon439"
     transform="matrix(0.5832,0,0,0.5832,-5.1830671,375.2068)" />
  <path
     style="fill:none;stroke:#000000;stroke-width:0.58319998"
     d="m 64.800931,151.258 c -6.4152,11.0808 -23.015004,47.81643 -3.921875,66.95912 19.2456,19.02451 40.865494,32.87481 85.569874,41.51608"
     id="path450"
     inkscape:connector-curvature="0"
     sodipodi:nodetypes="ccc" />
  <polygon
     style="fill:#000000;stroke:#000000"
     points="270,-194 259.415,-194.464 262.015,-200.964 262.015,-200.964 "
     id="polygon452"
     transform="matrix(0.5832,0,0,0.5832,-5.1830671,375.2068)" />
  <path
     style="fill:none;stroke:#000000;stroke-width:0.58319998"
     d="m 59.552131,151.258 c -6.4152,5.2488 -13.9968,11.664 -20.412,17.496"
     id="path463"
     inkscape:connector-curvature="0" />
  <polygon
     style="fill:#000000;stroke:#000000"
     points="68,-348 73.9,-356.8 78.1,-351.2 78.1,-351.2 "
     id="polygon465"
     transform="matrix(0.5832,0,0,0.5832,-5.1830671,375.2068)" />
  <path
     style="fill:none;stroke:#000000;stroke-width:0.58319998"
     d="m 169.19373,277.22919 c 1.1664,11.0808 2.916,27.9936 4.6656,41.9904 0.5832,4.6656 1.1664,10.4976 2.3328,15.1632"
     id="path476"
     inkscape:connector-curvature="0" />
  <polygon
     style="fill:#000000;stroke:#000000"
     points="313,-60 307.607,-69.1194 314.471,-70.4922 314.471,-70.4922 "
     id="polygon478"
     transform="matrix(0.5832,0,0,0.5832,-5.1830671,375.2068)" />
  <path
     style="fill:none;stroke:#000000;stroke-width:0.58319998"
     d="m 175.02573,277.22919 c 2.916,4.6656 6.9984,10.4976 10.4976,16.3296"
     id="path489"
     inkscape:connector-curvature="0" />
  <polygon
     style="fill:#000000;stroke:#000000"
     points="332,-132 323.732,-138.625 329.668,-142.335 329.668,-142.335 "
     id="polygon491"
     transform="matrix(0.5832,0,0,0.5832,-5.1830671,375.2068)" />
  <path
     style="fill:none;stroke:#000000;stroke-width:0.58319998"
     d="m 24.560131,193.2484 c 3.4992,12.2472 22.29414,37.85421 38.307364,48.98837 16.436349,11.61064 52.062805,18.36974 82.389205,23.61853"
     id="path502"
     inkscape:connector-curvature="0"
     sodipodi:nodetypes="ccc" />
  <polygon
     style="fill:#000000;stroke:#000000"
     points="270,-190 259.508,-188.529 260.881,-195.393 260.881,-195.393 "
     id="polygon504"
     transform="matrix(0.5832,0,0,0.5832,-6.1161871,378.00616)" />
  <path
     style="fill:none;stroke:#000000;stroke-width:0.58319998"
     d="m 162.19533,109.26759 c 4.0824,5.832 8.1648,13.4136 9.9144,20.9952 6.9984,26.8272 6.01579,58.66476 2.51659,77.91035"
     id="path515"
     inkscape:connector-curvature="0"
     sodipodi:nodetypes="ccc" />
  <polygon
     style="fill:#000000;stroke:#000000"
     points="306.393,-285.119 301,-276 299.529,-286.492 306.393,-285.119 "
     id="polygon517"
     transform="matrix(0.5832,0,0,0.5832,-2.3837075,375.2068)" />
  <path
     style="fill:none;stroke:#000000;stroke-width:0.58319998"
     d="m 153.44733,109.26759 c -0.5832,4.6656 -1.1664,9.9144 -1.7496,15.1632"
     id="path528"
     inkscape:connector-curvature="0" />
  <polygon
     style="fill:#000000;stroke:#000000"
     points="267,-420 265.529,-430.492 272.393,-429.119 272.393,-429.119 "
     id="polygon530"
     transform="matrix(0.5832,0,0,0.5832,-5.1830671,375.2068)" />
  <path
     style="fill:none;stroke:#000000;stroke-width:0.58319998"
     d="m 166.86093,109.26759 c 6.4152,5.832 13.4136,13.4136 19.2456,20.9952 8.1648,11.0808 13.9968,25.6608 18.0792,36.7416"
     id="path541"
     inkscape:connector-curvature="0" />
  <polygon
     style="fill:#000000;stroke:#000000"
     points="363,-348 355.74,-355.717 362.137,-358.56 362.137,-358.56 "
     id="polygon543"
     transform="matrix(0.5832,0,0,0.5832,-5.1830671,375.2068)" />
  <path
     style="fill:none;stroke:#000000;stroke-width:0.58319998"
     d="m 170.36013,102.26919 c 22.1616,5.832 62.42822,26.82123 71.54682,45.63863 10.0237,19.03597 7.34314,40.67497 -1.56282,61.08697"
     id="path554"
     inkscape:connector-curvature="0"
     sodipodi:nodetypes="ccc" />
  <polygon
     style="fill:#000000;stroke:#000000"
     points="417,-276 417.863,-286.56 424.26,-283.717 424.26,-283.717 "
     id="polygon556"
     transform="matrix(0.5832,0,0,0.5832,-5.1830671,375.2068)" />
  <path
     style="fill:none;stroke:#000000;stroke-width:0.58319998"
     d="m 145.28253,109.26759 c -5.832,5.832 -12.8304,13.9968 -18.6624,20.9952 -9.9144,12.8304 -22.1616,26.8272 -30.9096,37.3248"
     id="path567"
     inkscape:connector-curvature="0" />
  <polygon
     style="fill:#000000;stroke:#000000"
     points="167,-348 170.2,-358.1 175.8,-353.9 175.8,-353.9 "
     id="polygon569"
     transform="matrix(0.5832,0,0,0.5832,-5.1830671,375.2068)" />
  <path
     style="fill:none;stroke:#000000;stroke-width:0.58319998"
     d="m 138.86733,106.9348 c -12.8304,6.4152 -30.9096,16.3296 -45.4896,23.328"
     id="path580"
     inkscape:connector-curvature="0" />
  <polygon
     style="fill:#000000;stroke:#000000"
     points="160,-416 167.717,-423.26 170.56,-416.863 170.56,-416.863 "
     id="polygon582"
     transform="matrix(0.5832,0,0,0.5832,-5.1830671,375.2068)" />
  <path
     style="fill:none;stroke:#000000;stroke-width:0.58319998"
     d="m 170.36013,108.10119 c 18.6624,11.664 44.08772,22.1159 56.36076,42.21493 5.30046,10.41714 10.06938,17.36089 7.63028,32.20218 -2.67985,9.07706 -5.36954,12.34804 -13.65504,21.94899 -9.28385,10.75782 -16.48458,21.78505 -24.6752,30.7715 -4.6656,5.2488 -9.3312,11.664 -13.9968,16.3296"
     id="path593"
     inkscape:connector-curvature="0"
     sodipodi:nodetypes="cccscc" />
  <polygon
     style="fill:#000000;stroke:#000000"
     points="314,-204 317.951,-213.831 323.219,-209.221 323.219,-209.221 "
     id="polygon595"
     transform="matrix(0.5832,0,0,0.5832,-5.1830671,375.2068)" />
  <path
     style="fill:none;stroke:#000000;stroke-width:0.58319998"
     d="m 138.86733,99.936398 c -22.1616,2.332802 -61.819199,9.914402 -87.479999,30.326402 -11.664,9.3312 -19.2456,24.4944 -23.9112,36.7416"
     id="path606"
     inkscape:connector-curvature="0" />
  <polygon
     style="fill:#000000;stroke:#000000"
     points="53,-348 52.842,-358.594 59.4827,-356.38 59.4827,-356.38 "
     id="polygon608"
     transform="matrix(0.5832,0,0,0.5832,-5.1830671,375.2068)" />
  <a
     xlink:href="dir_147ae610b8eb1ec7efc2e85610ebf8a0.htm"
     target="_top"
     xlink:title="wpfview"
     id="a619"
     transform="matrix(0.5832,0,0,0.5832,-5.1830671,375.2068)">
    <polygon
       style="fill:#ffffff;stroke:#000000"
       points="301,-528 301,-564 301,-564 247,-564 247,-528 "
       id="polygon621" />
    <text
       x="274"
       y="-543"
       style="font-size:10px;line-height:125%;text-anchor:middle;font-family:Arial"
       id="text623"
       sodipodi:linespacing="125%">
      <tspan
         style="font-size:14.81481457px;font-style:normal;font-variant:normal;font-weight:normal;font-stretch:normal;text-align:center;line-height:125%;writing-mode:lr-tb;text-anchor:middle;font-family:Arial;-inkscape-font-specification:Arial"
         id="tspan4276">wpfview</tspan>
    </text>
  </a>
  <path
     style="fill:none;stroke:#000000;stroke-width:0.58319998"
     d="m 154.61373,67.277068 c 0,4.6656 0,9.9144 0,15.16323"
     id="path628"
     inkscape:connector-curvature="0" />
  <polygon
     style="fill:#000000;stroke:#000000"
     points="274,-492 270.5,-502 277.5,-502 277.5,-502 "
     id="polygon630"
     transform="matrix(0.5832,0,0,0.5832,-5.1830671,375.2068)" />
</svg>
